<svg height="512" viewBox="0 0 192 192" width="512" xmlns="http://www.w3.org/2000/svg" xmlns:xlink="http://www.w3.org/1999/xlink"><linearGradient id="New_Gradient_Swatch_1" gradientUnits="userSpaceOnUse" x1="118.343" x2="209.657" y1="161.657" y2="70.343"><stop offset="0" stop-color="#34cdfa"/><stop offset="1" stop-color="#e8d9f1"/></linearGradient><rect fill="#ccf2fe" height="88" rx="8" width="40" x="32" y="104"/><path d="m48 184v-72a8 8 0 0 1 8-8h-16a8 8 0 0 0 -8 8v72a8 8 0 0 0 8 8h16a8 8 0 0 1 -8-8z" fill="#99e6fd"/><rect fill="#67d9fb" height="120" rx="8" width="40" x="88" y="72"/><path d="m104 184v-104a8 8 0 0 1 8-8h-16a8 8 0 0 0 -8 8v104a8 8 0 0 0 8 8h16a8 8 0 0 1 -8-8z" fill="#34cdfa"/><rect fill="url(#New_Gradient_Swatch_1)" height="152" rx="8" width="40" x="144" y="40"/><path d="m192 192h-184a8 8 0 0 1 -8-8v-144h16v136h176z" fill="#01c0f9"/></svg>